# xmcd
#
# Track frame offsets: 
#        150
#        26159
#        43459
#        59392
#        76583
#        104482
#        127099
#        147517
#        197502
#        238864
#        251983
#        286837
#
# Disc length: 4388 seconds
#
# Revision: 1
# Processed by: cddbd v1.5.1PL0 Copyright (c) Steve Scherf et al.
# Submitted via: ExactAudioCopy v0.95a5
#
DISCID=b811220c
DTITLE=Neil Young - A Perfect Echo (Vol 2, Disc 1)
DYEAR=2001
DGENRE=Rock
TTITLE0=Thrasher (solo - San Francisco, CA 22-Oct-1978))
TTITLE1=Little Thing Called Love (Trans Band - Berlin, Germany 19-Oct-
TTITLE1=1982)
TTITLE2=Old Man (Trans Band - Berlin, Germany 19-Oct-1982)
TTITLE3=Transformer Man (Trans Band - Berlin, Germany 19-Oct-1982)
TTITLE4=Sample And Hold (Trans Band - Berlin, Germany 19-Oct-1982)
TTITLE5=Don't Be Denied (solo - Dayton, OH 18-Sep-1983)
TTITLE6=Barstool Blues (CH - Santa Cruz, CA 7-Feb-1984)
TTITLE7=Touch The Night (CH - Santa Cruz, CA 7-Feb-1984)
TTITLE8=Tonight's The Night (CH - Santa Cruz, CA 7-Feb-1984)
TTITLE9=Comes A Time (Internat'l Harvesters - Austin, TX 25-Sep-1984)
TTITLE10=Southern Pacific (Internat'l Harvesters - Austin, TX 25-Sep-1
TTITLE10=984)
TTITLE11=Down By The River (Internat'l Harvesters - Austin, TX 25-Sep-
TTITLE11=1984)
EXTD=
EXTT0=
EXTT1=
EXTT2=
EXTT3=
EXTT4=
EXTT5=
EXTT6=
EXTT7=
EXTT8=
EXTT9=
EXTT10=
EXTT11=
PLAYORDER=
